<svg xmlns="http://www.w3.org/2000/svg" version="1.1" xmlns:xlink="http://www.w3.org/1999/xlink" xmlns:svgjs="http://svgjs.dev/svgjs" width="100%" height="100%" viewBox="0 0 1000 600"><rect width="1000" height="600" x="0" y="0" fill="#FFF0"/><g><circle r="166.66666666666666" cx="372.94314066569007" cy="395.16538415608795" fill="#fce77d" transform="matrix(0.6059827780167912,0,0,0.6059827780167911,0,60.53658508269963)"/><path d="M397.67279259611803 431.0114357916077L415.7707555673496 431.0114357916077Q424.7084139063936 431.0114357916077 429.065919929344 428.81677947347947Q433.39161933898805 426.6539297686574 434.7911103244611 418.8613095086368L434.7911103244611 418.8613095086368L445.3190993288155 359.31932939941805L426.9984900644405 359.31932939941805Q418.2834780185399 359.31932939941805 413.92597199558963 361.5139857175463Q409.6002725859455 363.67683542236836 408.2007816004724 371.46945568238897L408.2007816004724 371.46945568238897L397.67279259611803 431.0114357916077ZM434.5366574180115 320.1653884194777L434.5366574180115 320.1653884194777Q463.6397085931905 320.1653884194777 476.0124811693049 331.4885427564873Q488.35344713211305 342.843503706803 488.35344713211305 366.4122041667021Q488.35344713211305 390.01271123990745 480.91069961846074 415.77606801793473Q473.4679521048084 441.53942479596213 457.34199915856163 455.85240078375506Q441.1842395990086 470.16537677154804 410.1727916254572 470.16537677154804Q379.12953703859955 470.16537677154804 366.7567644624852 458.84222243453854Q354.38399188637084 447.48726148422276 354.38399188637084 423.91856102432365L354.38399188637084 423.91856102432365Q354.38399188637084 412.69082652723273 357.5964598302977 394.2429908096329Q360.80892777422457 375.8269617053393 366.08882558305487 362.4045708901201Q371.33691677857894 349.0139866882071 380.274575117623 339.18574317658926L380.274575117623 339.18574317658926Q397.4501463029746 320.1653884194777 434.5366574180115 320.1653884194777ZM351.6486231420371 389.5674186536205L350.9488776493005 394.14757096971425Q350.50358506301365 395.96054792816807 350.05829247672676 399.17301587209494L350.05829247672676 399.17301587209494L260.04557682016207 389.5674186536205L351.6486231420371 389.5674186536205ZM257.53285436897175 411.5457884482093L348.4361551981102 411.5457884482093Q347.7682163186799 416.79387964373336 347.7682163186799 421.15138566668367L347.7682163186799 421.15138566668367L257.53285436897175 411.5457884482093ZM265.5481209221358 367.55724224572555L357.1511672440108 367.55724224572555L354.38399188637084 376.9719997843627L265.5481209221358 367.55724224572555ZM260.49086940644895 433.524158242798L347.99086261182333 433.524158242798Q348.9132543977033 439.94909413065176 349.58119327713365 443.12975546127245L349.58119327713365 443.12975546127245L260.49086940644895 433.524158242798ZM276.2987562196337 345.57887245113676L366.53411816934175 345.57887245113676Q363.3216502254149 351.52670913939744 361.953965853248 354.7391770833243L361.953965853248 354.7391770833243L276.2987562196337 345.57887245113676ZM282.5010458143439 455.72517433053025L354.86109108596395 455.72517433053025Q357.81910612344114 461.00507213936055 361.73131956010457 464.2175400832874L361.73131956010457 464.2175400832874L282.5010458143439 455.72517433053025ZM307.914529846003 323.60050265654803L388.2898416707871 323.60050265654803Q381.6422594897899 327.7353623863549 377.9844989595761 331.1704766234252L377.9844989595761 331.1704766234252L307.914529846003 323.60050265654803Z " fill="#00ff00" transform="matrix(0.6059827780167912,0,0,0.6059827780167911,0,60.53658508269963)"/><path d="M763.0830938046141 431.0114357916077L781.1810567758457 431.0114357916077Q790.1187151148897 431.0114357916077 794.47622113784 428.81677947347947Q798.8019205474841 426.6539297686574 800.2014115329572 418.8613095086368L800.2014115329572 418.8613095086368L810.7294005373116 359.31932939941805L792.4087912729366 359.31932939941805Q783.693779227036 359.31932939941805 779.3362732040857 361.5139857175463Q775.0105737944416 363.67683542236836 773.6110828089685 371.46945568238897L773.6110828089685 371.46945568238897L763.0830938046141 431.0114357916077ZM799.9469586265076 320.1653884194777L799.9469586265076 320.1653884194777Q829.0500098016865 320.1653884194777 841.422782377801 331.4885427564873Q853.7637483406091 342.843503706803 853.7637483406091 366.4122041667021Q853.7637483406091 390.01271123990745 846.3210008269568 415.77606801793473Q838.8782533133044 441.53942479596213 822.7523003670577 455.85240078375506Q806.5945408075047 470.16537677154804 775.5830928339533 470.16537677154804Q744.5398382470956 470.16537677154804 732.1670656709813 458.84222243453854Q719.7942930948669 447.48726148422276 719.7942930948669 423.91856102432365L719.7942930948669 423.91856102432365Q719.7942930948669 412.69082652723273 723.0067610387938 394.2429908096329Q726.2192289827207 375.8269617053393 731.4991267915509 362.4045708901201Q736.747217987075 349.0139866882071 745.6848763261191 339.18574317658926L745.6848763261191 339.18574317658926Q762.8604475114706 320.1653884194777 799.9469586265076 320.1653884194777ZM717.0589243505332 389.5674186536205L716.3591788577966 394.14757096971425Q715.9138862715097 395.96054792816807 715.4685936852228 399.17301587209494L715.4685936852228 399.17301587209494L625.4558780286582 389.5674186536205L717.0589243505332 389.5674186536205ZM622.9431555774678 411.5457884482093L713.8464564066063 411.5457884482093Q713.1785175271759 416.79387964373336 713.1785175271759 421.15138566668367L713.1785175271759 421.15138566668367L622.9431555774678 411.5457884482093ZM630.9584221306319 367.55724224572555L722.5614684525069 367.55724224572555L719.7942930948669 376.9719997843627L630.9584221306319 367.55724224572555ZM625.901170614945 433.524158242798L713.4011638203194 433.524158242798Q714.3235556061993 439.94909413065176 714.9914944856297 443.12975546127245L714.9914944856297 443.12975546127245L625.901170614945 433.524158242798ZM641.7090574281297 345.57887245113676L731.9444193778378 345.57887245113676Q728.731951433911 351.52670913939744 727.364267061744 354.7391770833243L727.364267061744 354.7391770833243L641.7090574281297 345.57887245113676ZM647.91134702284 455.72517433053025L720.27139229446 455.72517433053025Q723.2294073319372 461.00507213936055 727.1416207686007 464.2175400832874L727.1416207686007 464.2175400832874L647.91134702284 455.72517433053025ZM673.3248310544991 323.60050265654803L753.7001428792831 323.60050265654803Q747.052560698286 327.7353623863549 743.3948001680722 331.1704766234252L743.3948001680722 331.1704766234252L673.3248310544991 323.60050265654803ZM926.8235391049657 345.57887245113676L984.9978348420175 345.57887245113676Q1018.4265854268407 345.57887245113676 1018.4265854268407 375.8269617053393L1018.4265854268407 375.8269617053393Q1018.4265854268407 389.5674186536205 1012.924041324867 404.32568722770037Q1007.4533038361994 419.08395580178023 994.3807857673485 426.43128347551396L994.3807857673485 426.43128347551396L1007.4533038361994 466.73026253447773L964.609795712739 466.73026253447773L955.9265902801448 431.4567283778946L950.424046178171 431.4567283778946L944.2217565834607 466.73026253447773L905.7675610962569 466.73026253447773L926.8235391049657 345.57887245113676ZM975.1377847170936 393.2251791838343L976.5372757025666 385.2099126306702Q976.5372757025666 384.98726633752676 976.75992199571 382.91983647262333L976.75992199571 382.91983647262333Q976.75992199571 379.00762303595997 964.609795712739 379.00762303595997L964.609795712739 379.00762303595997L959.5843508103585 379.00762303595997L955.9265902801448 400.09540765797493L963.2421113405723 400.09540765797493Q973.7701003449266 400.09540765797493 975.1377847170936 393.2251791838343L975.1377847170936 393.2251791838343ZM900.0423707011396 455.72517433053025L898.1975871293797 466.0305170417412L801.091996705531 455.72517433053025L900.0423707011396 455.72517433053025ZM907.8349909611603 411.5457884482093L905.9902073894003 421.8511311594202L808.8846169655516 411.5457884482093L907.8349909611603 411.5457884482093ZM911.7153977845176 389.5674186536205L909.8706142127576 399.87276136483143L812.796830402215 389.5674186536205L911.7153977845176 389.5674186536205ZM915.5958046078747 367.55724224572555L913.782827649421 377.8625849569365L816.6772372255722 367.55724224572555L915.5958046078747 367.55724224572555ZM919.2853717513947 345.57887245113676L917.6632344727782 355.88421516234774L820.5576440489294 345.57887245113676L919.2853717513947 345.57887245113676ZM903.922777524497 433.524158242798L902.1098005660431 443.829500954009L805.0042101421944 433.524158242798L903.922777524497 433.524158242798ZM1110.9520235345956 466.73026253447773L1070.8756907687753 466.73026253447773L1091.9316687774842 345.57887245113676L1132.2624544497542 345.57887245113676L1110.9520235345956 466.73026253447773ZM1065.1505003736584 455.72517433053025L1063.3057168018981 466.0305170417412L966.2319329913556 455.72517433053025L1065.1505003736584 455.72517433053025ZM1072.9431206336787 411.5457884482093L1071.0983370619188 421.8511311594202L973.99274663807 411.5457884482093L1072.9431206336787 411.5457884482093ZM1076.823527457036 389.5674186536205L1075.0105504985822 399.87276136483143L977.9049600747335 389.5674186536205L1076.823527457036 389.5674186536205ZM1080.7357408936994 367.55724224572555L1078.8909573219394 377.8625849569365L981.7853668980906 367.55724224572555L1080.7357408936994 367.55724224572555ZM1084.3935014239132 345.57887245113676L1082.7713641452967 355.88421516234774L985.6975803347541 345.57887245113676L1084.3935014239132 345.57887245113676ZM1069.0309071970153 433.524158242798L1067.2179302385616 443.829500954009L970.1123398147129 433.524158242798L1069.0309071970153 433.524158242798ZM1191.549981652523 455.72517433053025L1189.7370046940696 466.0305170417412L1092.6314142702208 455.72517433053025L1191.549981652523 455.72517433053025ZM1195.4621950891865 433.524158242798L1193.6174115174267 443.829500954009L1096.511821093578 433.524158242798L1195.4621950891865 433.524158242798ZM1182.3896770203355 367.55724224572555L1184.4571068852392 377.8625849569365L1087.3515164613905 367.55724224572555L1182.3896770203355 367.55724224572555ZM1177.809524704242 345.57887245113676L1179.8769545691453 355.88421516234774L1082.7713641452967 345.57887245113676L1177.809524704242 345.57887245113676ZM1186.9698293364295 389.5674186536205L1189.037259201333 399.87276136483143L1091.9316687774842 389.5674186536205L1186.9698293364295 389.5674186536205ZM1191.3273353593797 411.5457884482093L1193.6174115174267 421.8511311594202L1096.511821093578 411.5457884482093L1191.3273353593797 411.5457884482093ZM1184.6797531783827 345.57887245113676L1224.0881470647726 345.57887245113676L1229.1135919671533 389.5674186536205L1230.4812763393202 389.5674186536205L1249.5016310964315 345.57887245113676L1289.577963862252 345.57887245113676L1241.0410719569807 432.15647387063115L1235.3158815618635 466.73026253447773L1196.60723316821 466.73026253447773L1202.5550698564707 432.15647387063115L1184.6797531783827 345.57887245113676ZM1398.133935076335 343.2887962930899L1398.133935076335 343.2887962930899Q1422.8476736152575 343.2887962930899 1433.4074692329182 352.7989736716457Q1443.9354582372725 362.3091510502015 1443.9354582372725 382.4427372730302L1443.9354582372725 382.4427372730302Q1443.9354582372725 392.3027873979543 1441.4227357860823 406.265890639379L1441.4227357860823 406.265890639379Q1435.697545390965 439.24934863791526 1421.257342949947 454.3574899583634Q1406.8171405089295 469.4656312788115 1375.9011123752966 469.4656312788115L1375.9011123752966 469.4656312788115Q1351.632666422661 469.4656312788115 1341.32732371145 459.9872605135619Q1331.021981000239 450.4770831350061 1331.021981000239 430.53433659201465L1331.021981000239 430.53433659201465Q1331.021981000239 420.22899388080367 1333.5347034514296 406.265890639379L1333.5347034514296 406.265890639379Q1339.2598938465467 373.2824326408427 1353.477449994421 358.3015177736194Q1367.663199528989 343.2887962930899 1398.133935076335 343.2887962930899ZM1369.030883901156 434.66919632182146L1382.5486945562939 434.66919632182146Q1389.196276737291 434.66919632182146 1392.5041645211365 433.07886565651114Q1395.843858918288 431.4567283778946 1396.9888969973117 425.95418427592085L1396.9888969973117 425.95418427592085L1405.6721024299059 378.11703786338614L1391.7089991884814 378.11703786338614Q1385.3158699139337 378.11703786338614 1381.7535292236387 379.70736852869646Q1378.1911885333436 381.2976991940068 1377.5232496539131 386.5775970028371L1377.5232496539131 386.5775970028371L1369.030883901156 434.66919632182146ZM1234.1708434828402 411.5457884482093L1325.5194368982654 411.5457884482093Q1324.6288517256917 418.63866321549335 1324.3743988192418 421.15138566668367L1324.3743988192418 421.15138566668367L1234.1708434828402 411.5457884482093ZM1238.2738965993408 389.5674186536205L1329.8769429212157 389.5674186536205L1327.8095130563124 399.17301587209494L1238.2738965993408 389.5674186536205ZM1235.0614286554137 433.524158242798L1324.1517525260986 433.524158242798Q1324.1517525260986 437.1819187730118 1325.0741443119784 443.12975546127245L1325.0741443119784 443.12975546127245L1235.0614286554137 433.524158242798ZM1247.4342012315283 367.55724224572555L1337.8922094743798 367.55724224572555Q1335.156840730046 373.5368855472924 1334.0118026510227 376.71754687791304L1334.0118026510227 376.71754687791304L1247.4342012315283 367.55724224572555ZM1255.0041751984054 455.72517433053025L1328.9545511353358 455.72517433053025Q1331.7217264929757 461.227718432504 1334.9341944369025 464.2175400832874L1334.9341944369025 464.2175400832874L1255.0041751984054 455.72517433053025ZM1278.1275830720176 345.57887245113676L1357.8349560173713 345.57887245113676Q1352.3324119153976 348.7913403950636 1348.4201984787342 353.148846418014L1348.4201984787342 353.148846418014L1278.1275830720176 345.57887245113676Z " fill="#00ff00" transform="matrix(0.6059827780167912,0,0,0.6059827780167911,0,60.53658508269963)"/></g></svg>